<mxfile host="app.diagrams.net" modified="2024-06-24T16:49:46.069Z" agent="Mozilla/5.0 (Windows NT 10.0; Win64; x64) AppleWebKit/537.36 (KHTML, like Gecko) Chrome/126.0.0.0 Safari/537.36" etag="ocaq0P1zXsWKAGgEUeJ1" version="24.5.4" type="device">
  <diagram name="PÃ¡gina-1" id="dYH_oSG92u2ehRiZvkoz">
    <mxGraphModel dx="1259" dy="655" grid="1" gridSize="10" guides="1" tooltips="1" connect="1" arrows="1" fold="1" page="1" pageScale="1" pageWidth="827" pageHeight="1169" math="0" shadow="0">
      <root>
        <mxCell id="0" />
        <mxCell id="1" parent="0" />
        <mxCell id="0ZlVNRYlUY8Gt70VH79_-1" value="&lt;font style=&quot;font-size: 15px;&quot;&gt;?????&lt;/font&gt;&lt;div style=&quot;font-size: 15px;&quot;&gt;&lt;font style=&quot;font-size: 15px;&quot;&gt;?????&lt;/font&gt;&lt;/div&gt;&lt;div style=&quot;font-size: 15px;&quot;&gt;&lt;font style=&quot;font-size: 15px;&quot;&gt;?????&lt;/font&gt;&lt;/div&gt;&lt;div style=&quot;font-size: 15px;&quot;&gt;&lt;font style=&quot;font-size: 15px;&quot;&gt;?????&lt;/font&gt;&lt;/div&gt;&lt;div style=&quot;font-size: 15px;&quot;&gt;&lt;font style=&quot;font-size: 15px;&quot;&gt;?????&lt;/font&gt;&lt;/div&gt;" style="shape=note;whiteSpace=wrap;html=1;backgroundOutline=1;darkOpacity=0.05;align=center;fillColor=#fad7ac;strokeColor=#b46504;" vertex="1" parent="1">
          <mxGeometry x="30" y="85" width="100" height="140" as="geometry" />
        </mxCell>
        <mxCell id="0ZlVNRYlUY8Gt70VH79_-2" value="&lt;font style=&quot;font-size: 15px;&quot;&gt;script.js&lt;/font&gt;" style="rounded=1;whiteSpace=wrap;html=1;fillColor=#b1ddf0;strokeColor=#10739e;" vertex="1" parent="1">
          <mxGeometry x="230" y="113.75" width="150" height="82.5" as="geometry" />
        </mxCell>
        <mxCell id="0ZlVNRYlUY8Gt70VH79_-3" value="&lt;font style=&quot;font-size: 14px;&quot;&gt;Crucigrama.json&lt;/font&gt;" style="shape=note;whiteSpace=wrap;html=1;backgroundOutline=1;darkOpacity=0.05;fillColor=#fad7ac;strokeColor=#b46504;" vertex="1" parent="1">
          <mxGeometry x="480" y="85" width="110" height="140" as="geometry" />
        </mxCell>
        <mxCell id="0ZlVNRYlUY8Gt70VH79_-5" value="&lt;font style=&quot;font-size: 14px;&quot;&gt;MongoDB&lt;/font&gt;" style="shape=cylinder3;whiteSpace=wrap;html=1;boundedLbl=1;backgroundOutline=1;size=15;fillColor=#d5e8d4;strokeColor=#82b366;" vertex="1" parent="1">
          <mxGeometry x="700" y="72.5" width="100" height="142.5" as="geometry" />
        </mxCell>
        <mxCell id="0ZlVNRYlUY8Gt70VH79_-9" value="" style="html=1;shadow=0;dashed=0;align=center;verticalAlign=middle;shape=mxgraph.arrows2.arrow;dy=0.6;dx=40;notch=0;fillColor=#000000;" vertex="1" parent="1">
          <mxGeometry x="140" y="130" width="80" height="50" as="geometry" />
        </mxCell>
        <mxCell id="0ZlVNRYlUY8Gt70VH79_-10" value="" style="html=1;shadow=0;dashed=0;align=center;verticalAlign=middle;shape=mxgraph.arrows2.arrow;dy=0.6;dx=40;notch=0;strokeColor=default;fillColor=#000000;" vertex="1" parent="1">
          <mxGeometry x="390" y="130" width="80" height="50" as="geometry" />
        </mxCell>
        <mxCell id="0ZlVNRYlUY8Gt70VH79_-11" value="" style="html=1;shadow=0;dashed=0;align=center;verticalAlign=middle;shape=mxgraph.arrows2.arrow;dy=0.6;dx=40;notch=0;fillColor=#000000;" vertex="1" parent="1">
          <mxGeometry x="610" y="130" width="80" height="50" as="geometry" />
        </mxCell>
        <mxCell id="0ZlVNRYlUY8Gt70VH79_-15" value="&lt;font style=&quot;font-size: 14px;&quot;&gt;Importar&lt;/font&gt;" style="text;html=1;align=center;verticalAlign=middle;whiteSpace=wrap;rounded=0;" vertex="1" parent="1">
          <mxGeometry x="620" y="30" width="60" height="30" as="geometry" />
        </mxCell>
        <mxCell id="0ZlVNRYlUY8Gt70VH79_-16" value="&lt;font style=&quot;font-size: 14px;&quot;&gt;Plantilla&lt;/font&gt;" style="text;html=1;align=center;verticalAlign=middle;whiteSpace=wrap;rounded=0;" vertex="1" parent="1">
          <mxGeometry x="50" y="30" width="60" height="30" as="geometry" />
        </mxCell>
        <mxCell id="0ZlVNRYlUY8Gt70VH79_-17" value="&lt;font style=&quot;font-size: 14px;&quot;&gt;Transformar&lt;/font&gt;" style="text;html=1;align=center;verticalAlign=middle;whiteSpace=wrap;rounded=0;" vertex="1" parent="1">
          <mxGeometry x="262.5" y="30" width="85" height="30" as="geometry" />
        </mxCell>
        <mxCell id="0ZlVNRYlUY8Gt70VH79_-18" value="&lt;font color=&quot;#ff0000&quot; style=&quot;font-size: 18px;&quot;&gt;1&lt;/font&gt;" style="ellipse;whiteSpace=wrap;html=1;aspect=fixed;fillColor=none;strokeColor=#FF0000;" vertex="1" parent="1">
          <mxGeometry x="290" y="55" width="30" height="30" as="geometry" />
        </mxCell>
        <mxCell id="0ZlVNRYlUY8Gt70VH79_-19" value="&lt;font color=&quot;#ff0000&quot; style=&quot;font-size: 18px;&quot;&gt;2&lt;/font&gt;" style="ellipse;whiteSpace=wrap;html=1;aspect=fixed;fillColor=none;strokeColor=#FF0000;" vertex="1" parent="1">
          <mxGeometry x="640" y="55" width="30" height="30" as="geometry" />
        </mxCell>
      </root>
    </mxGraphModel>
  </diagram>
</mxfile>
